<svg xmlns="http://www.w3.org/2000/svg" xmlns:xlink="http://www.w3.org/1999/xlink" viewBox="160 260 480 410" style="&#10;">
<defs>
<linearGradient id="c" x1="-750.5" x2="-729.5" y1="319.06" y2="319.06" gradientTransform="translate(1104.2 304.47)" gradientUnits="userSpaceOnUse">
<stop stop-color="gray" offset="0"/>
<stop stop-color="gray" stop-opacity="0" offset="1"/>
</linearGradient>
<linearGradient id="a" x1="-621.5" x2="-600.5" y1="348.3" y2="348.3" gradientTransform="translate(1075.2 275.22)" gradientUnits="userSpaceOnUse">
<stop stop-color="gray" offset="0"/>
<stop stop-color="gray" stop-opacity="0" offset="1"/>
</linearGradient>
<linearGradient id="b" x1="-521.5" x2="-500.5" y1="348.3" y2="348.3" gradientTransform="translate(1075.2 275.22)" gradientUnits="userSpaceOnUse">
<stop stop-color="gray" offset="0"/>
<stop stop-color="gray" stop-opacity="0" offset="1"/>
</linearGradient>
<linearGradient id="e" x1="-560.5" x2="-474.5" y1="114.1" y2="114.1" gradientTransform="translate(1104.2 304.47)" gradientUnits="userSpaceOnUse">
<stop stop-color="gray" offset="0"/>
<stop stop-color="gray" stop-opacity="0" offset="1"/>
</linearGradient>
<linearGradient id="d" x1="188.68" x2="304.68" y1="603.53" y2="603.53" gradientUnits="userSpaceOnUse">
<stop stop-color="#0074bd" offset="0"/>
<stop stop-color="#0074bd" stop-opacity="0" offset="1"/>
</linearGradient>
<linearGradient id="f" x1="543.68" x2="594.68" y1="488.42" y2="488.42" gradientUnits="userSpaceOnUse">
<stop stop-color="#0074bd" offset="0"/>
<stop stop-color="#0074bd" stop-opacity="0" offset="1"/>
</linearGradient>
</defs>
    <g style="&#10;">
<path d="m479.18 493.53 115 70-90 50-115-70 90-50z" fill="#16003a" stroke="#000"/>
<path d="m379.18 493.53 115 70-90 50-115-70 90-50z" fill="#ffba39" stroke="#000"/>
<path d="m279.18 493.53 115 70-90 50-115-70 90-50z" fill="#991039" stroke="#000"/>
<path d="m594 563.3-49.822-29.778v-120l50 30-0.178 119.78z" fill="url(#f)" stroke="#000"/>
<path d="m594.18 443.63 35-20.1-50-30-35 20 50 30.1z" fill="url(#e)" stroke="#000"/>
<path d="m189.18 543.53 115 70v50l-115-70v-50z" fill="url(#d)" stroke="#000"/>
<path d="m304.18 663.53v-50l90-50 10 50 90-50 10 50 90-50v-120l35-20v240h-325z" fill="#fff" stroke="#000"/>

<rect x="354.18" y="613.53" width="20" height="20" ry="5" fill="url(#c)" stroke="#000"/>
<rect x="554.18" y="613.53" width="20" height="20" ry="5" fill="url(#b)" stroke="#000"/>
        <rect x="454.18" y="613.53" width="20" height="20" ry="5" fill="url(#a)" stroke="#000"/></g>
</svg>
